<svg width="19" height="19" viewBox="0 0 19 19" fill="none" xmlns="http://www.w3.org/2000/svg">
<path d="M16.7707 3.66016C16.1773 4.01238 14.9868 4.49242 14.2869 4.63088C14.2663 4.6362 14.2496 4.64305 14.2298 4.64837C13.6113 4.03825 12.7638 3.66016 11.8258 3.66016C9.93536 3.66016 8.40244 5.19307 8.40244 7.08354C8.40244 7.1832 8.39407 7.36654 8.40244 7.46392C5.85164 7.46392 3.91019 6.12804 2.51802 4.42091C2.36663 4.80129 2.30044 5.40228 2.30044 5.96676C2.30044 7.03257 3.13347 8.07937 4.43055 8.72829C4.19167 8.78991 3.92845 8.83404 3.65458 8.83404C3.21258 8.83404 2.74472 8.71764 2.31642 8.36465C2.31642 8.37758 2.31642 8.38976 2.31642 8.40345C2.31642 9.893 3.89726 10.9071 5.30313 11.1893C5.01785 11.3575 4.44272 11.3742 4.162 11.3742C3.96421 11.3742 3.26432 11.2837 3.07717 11.2487C3.4682 12.4697 4.87863 13.1559 6.22288 13.1802C5.17152 14.0049 4.44196 14.3107 2.28903 14.3107H1.55566C2.91589 15.1825 4.64812 15.833 6.38416 15.833C12.0366 15.833 15.2492 11.5248 15.2492 7.46392C15.2492 7.3985 15.2477 7.26156 15.2454 7.12386C15.2454 7.11017 15.2492 7.09724 15.2492 7.08354C15.2492 7.063 15.2431 7.04322 15.2431 7.02268C15.2408 6.91922 15.2386 6.82261 15.2363 6.7724C15.8373 6.33877 16.3584 5.79787 16.7707 5.18166C16.2192 5.42662 15.6273 5.59095 15.0058 5.6655C15.6402 5.28512 16.5417 4.37831 16.7707 3.66016Z" fill="white"/>
</svg>
