<svg width="19" height="19" viewBox="0 0 19 19" fill="none" xmlns="http://www.w3.org/2000/svg">
<path d="M16.8997 3.01037C16.6259 2.77812 16.1957 2.74489 15.7509 2.92346H15.7502C15.2824 3.11115 2.50908 8.59003 1.98909 8.81388C1.89451 8.84674 1.06852 9.15494 1.1536 9.84144C1.22955 10.4604 1.89342 10.7167 1.97448 10.7463L5.22186 11.8582C5.43731 12.5754 6.23153 15.2214 6.40718 15.7866C6.51672 16.139 6.69529 16.602 7.00823 16.6973C7.28283 16.8032 7.55597 16.7065 7.73271 16.5677L9.71809 14.7262L12.9231 17.2257L12.9994 17.2714C13.2171 17.3678 13.4256 17.416 13.6246 17.416C13.7783 17.416 13.9258 17.3871 14.0668 17.3294C14.547 17.1323 14.7391 16.6747 14.7591 16.6229L17.1531 4.17925C17.2992 3.51465 17.0962 3.17651 16.8997 3.01037ZM8.08582 12.303L6.99034 15.2243L5.89485 11.5727L14.2936 5.36493L8.08582 12.303Z" fill="white"/>
</svg>
