<svg width="177" height="60" viewBox="0 0 177 60" fill="none" xmlns="http://www.w3.org/2000/svg">
<g clip-path="url(#clip0_423_1182)">
<path d="M-0.0556641 42.9625L21.3264 11.5947L29.4076 21.3639L21.3264 36.7331H17.7908L25.2277 22.1387L21.3264 17.8764L6.17376 40.4371H21.3264V42.9625H-0.0556641Z" fill="white"/>
<path d="M46.4126 42.9625L31.0169 23.7113L19.7502 48.4054H22.4119L31.0169 29.985L39.5097 40.4371H27.5559V42.9625H46.4126Z" fill="white"/>
<path d="M75.7396 15.3H66.2716V40.5H75.7396C82.6876 40.5 87.6196 34.848 87.6196 27.9C87.6196 20.952 82.6876 15.3 75.7396 15.3ZM75.7396 38.7H68.1796V17.1H75.7396C81.6797 17.1 85.7476 21.924 85.7476 27.9C85.7476 33.876 81.6797 38.7 75.7396 38.7ZM100.168 22.104C94.6599 22.104 90.8439 26.208 90.8439 31.5C90.8439 36.936 94.7679 40.896 100.312 40.896C103.876 40.896 106.684 39.276 108.16 36.828L106.576 35.892C105.532 37.8 103.3 39.168 100.348 39.168C96.2439 39.168 93.1479 36.504 92.7159 32.436H109.024C109.024 32.148 109.06 31.86 109.06 31.572C109.06 26.64 105.64 22.104 100.168 22.104ZM100.168 23.832C103.696 23.832 106.792 26.28 107.188 30.672H92.7159C93.0759 26.676 96.0639 23.832 100.168 23.832ZM121.236 16.632V14.904C116.52 14.544 114.036 17.1 114.036 21.528V22.5H110.94V24.264H114.036V40.5H115.872V24.264H121.236V22.5H115.872V21.528C115.872 18.036 117.564 16.344 121.236 16.632ZM133.803 24.264V22.5H128.439V17.46L126.603 18V22.5H122.643V24.264H126.603V35.964C126.603 40.068 129.087 41.22 133.803 40.5V38.88C130.131 39.204 128.439 39.132 128.439 35.964V24.264H133.803ZM139.023 18.144C139.815 18.144 140.463 17.496 140.463 16.704C140.463 15.948 139.815 15.3 139.023 15.3C138.231 15.3 137.583 15.948 137.583 16.704C137.583 17.496 138.231 18.144 139.023 18.144ZM138.123 40.5H139.923V22.5H138.123V40.5ZM153.966 16.632V14.904C149.25 14.544 146.766 17.1 146.766 21.528V22.5H143.67V24.264H146.766V40.5H148.602V24.264H153.966V22.5H148.602V21.528C148.602 18.036 150.294 16.344 153.966 16.632ZM170.635 22.5L164.371 38.52L157.099 22.5H155.155L163.435 40.824L163.039 41.796C161.923 44.424 160.087 46.224 157.675 46.008V47.7C160.771 47.952 163.435 45.612 164.803 42.156L172.579 22.5H170.635Z" fill="white"/>
</g>
<defs>
<clipPath id="clip0_423_1182">
<rect width="176" height="60" fill="white" transform="translate(0.0419922)"/>
</clipPath>
</defs>
</svg>
